<svg xmlns="http://www.w3.org/2000/svg" xmlns:xlink="http://www.w3.org/1999/xlink" aria-hidden="true" role="img" class="iconify iconify--logos" width="31.88" height="32" preserveAspectRatio="xMidYMid meet" viewBox="0 0 256 257"><defs><linearGradient id="IconifyId1813088fe1fbc01fb466" x1="-.828%" x2="57.636%" y1="7.652%" y2="78.411%"><stop offset="0%" stop-color="#41D1FF"></stop><stop offset="100%" stop-color="#BD34FE"></stop></linearGradient><linearGradient id="IconifyId1813088fe1fbc01fb467" x1="43.376%" x2="50.316%" y1="2.242%" y2="89.03%"><stop offset="0%" stop-color="#FFEA83"></stop><stop offset="8.333%" stop-color="#FFDD35"></stop><stop offset="100%" stop-color="#FFA800"></stop></linearGradient></defs><path fill="url(#IconifyId1813088fe1fbc01fb466)" d="M255.153 37.342c-2.034-14.83-15.724-24.923-30.13-22.294l-86.64 15.995a29.8 29.8 0 0 0-24.23 29.925v163.51a29.8 29.8 0 0 0 24.23 29.925l86.64 15.995c14.406 2.63 28.096-7.463 30.13-22.294V37.342z"></path><path fill="url(#IconifyId1813088fe1fbc01fb467)" d="M.847 37.342C2.881 22.512 16.57 12.42 30.976 15.05l86.64 15.995a29.8 29.8 0 0 1 24.23 29.925v163.51a29.8 29.8 0 0 1-24.23 29.925L30.976 254.41c-14.406 2.63-28.096-7.463-30.13-22.294V37.342z"></path></svg>