<svg xmlns="http://www.w3.org/2000/svg" xmlns:xlink="http://www.w3.org/1999/xlink" aria-hidden="true" role="img" class="iconify iconify--logos" width="32" height="32" preserveAspectRatio="xMidYMid meet" viewBox="0 0 128 128"><path fill="#61dafb" d="M124.5 63.3c0-4.8-3.5-8.8-8.2-8.8h-1.2c-4.3 0-7.9 3.1-8.2 7.4c-1.2 17.8-15.8 31.8-34.5 31.8s-33.3-14-34.5-31.8c-.3-4.3-3.9-7.4-8.2-7.4H11.7c-4.8 0-8.2 4-8.2 8.8c0 4.4 3.2 8.1 7.4 8.7c4.6 20.2 23.1 35.4 45.2 35.4s40.6-15.2 45.2-35.4c4.2-.6 7.4-4.3 7.4-8.7zM64 128c-34.2 0-62.2-26.6-63.9-60.4c-.2-4.8 3.5-8.8 8.2-8.8h1.2c4.3 0 7.9 3.1 8.2 7.4c1.2 17.8 15.8 31.8 34.5 31.8s33.3-14 34.5-31.8c.3-4.3 3.9-7.4 8.2-7.4h1.2c4.8 0 8.4 4 8.2 8.8C126.2 101.4 98.2 128 64 128zM64 0C29.8 0 1.8 26.6.1 60.4c-.2 4.8 3.5 8.8 8.2-8.8h1.2c4.3 0 7.9-3.1 8.2-7.4C21 44 35.6 30 54.2 30s33.3 14 34.5 31.8c.3 4.3 3.9-7.4 8.2-7.4h1.2c4.8 0 8.4-4 8.2-8.8C126.2 26.6 98.2 0 64 0zm0 54.5C45.5 54.5 31 40.5 30.2 22.8c-.3-4.3-3.9-7.4-8.2-7.4H20.8c-4.8 0-8.2 4-8.2 8.8c0 4.4 3.2 8.1 7.4 8.7C24.6 53 42.1 68.2 64 68.2s39.4-15.2 44-35.4c4.2-.6 7.4-4.3 7.4-8.7c0-4.8-3.5-8.8-8.2-8.8h-1.2c-4.3 0-7.9 3.1-8.2 7.4C97 40.5 82.5 54.5 64 54.5z"></path></svg>